<?xml version="1.0" encoding="UTF-8" standalone="no"?>
<svg
   xmlns:dc="http://purl.org/dc/elements/1.1/"
   xmlns:cc="http://creativecommons.org/ns#"
   xmlns:rdf="http://www.w3.org/1999/02/22-rdf-syntax-ns#"
   xmlns:svg="http://www.w3.org/2000/svg"
   xmlns="http://www.w3.org/2000/svg"
   xmlns:sodipodi="http://sodipodi.sourceforge.net/DTD/sodipodi-0.dtd"
   xmlns:inkscape="http://www.inkscape.org/namespaces/inkscape"
   version="1.1"
   x="0px"
   y="0px"
   viewBox="0 0 862 525"
   enable-background="new 0 0 1000 1000"
   xml:space="preserve"
   id="svg14"
   sodipodi:docname="cassette.svg"
   width="862"
   height="525"
   inkscape:version="0.92.2 (5c3e80d, 2017-08-06)"
   inkscape:export-filename="/home/keoma/Documents/k7/docs/static/cassette.svg.png"
   inkscape:export-xdpi="89.095131"
   inkscape:export-ydpi="89.095131"><title
     id="title3713">Cassette</title><metadata
     id="metadata20"><rdf:RDF><cc:Work
         rdf:about=""><dc:format>image/svg+xml</dc:format><dc:type
           rdf:resource="http://purl.org/dc/dcmitype/StillImage" /><dc:title>Cassette</dc:title><dc:creator><cc:Agent><dc:title>Alvaro Cabrera from the Noun Project</dc:title></cc:Agent></dc:creator><cc:license
           rdf:resource="http://creativecommons.org/licenses/by/4.0/" /></cc:Work><cc:License
         rdf:about="http://creativecommons.org/licenses/by/4.0/"><cc:permits
           rdf:resource="http://creativecommons.org/ns#Reproduction" /><cc:permits
           rdf:resource="http://creativecommons.org/ns#Distribution" /><cc:requires
           rdf:resource="http://creativecommons.org/ns#Notice" /><cc:requires
           rdf:resource="http://creativecommons.org/ns#Attribution" /><cc:permits
           rdf:resource="http://creativecommons.org/ns#DerivativeWorks" /></cc:License></rdf:RDF></metadata><defs
     id="defs18" /><sodipodi:namedview
     pagecolor="#ffffff"
     bordercolor="#666666"
     borderopacity="1"
     objecttolerance="10"
     gridtolerance="10"
     guidetolerance="10"
     inkscape:pageopacity="0"
     inkscape:pageshadow="2"
     inkscape:window-width="1366"
     inkscape:window-height="704"
     id="namedview16"
     showgrid="true"
     width="999px"
     inkscape:zoom="0.53400704"
     inkscape:cx="147.12949"
     inkscape:cy="295.36674"
     inkscape:window-x="0"
     inkscape:window-y="1127"
     inkscape:window-maximized="1"
     inkscape:current-layer="svg14"><inkscape:grid
       type="xygrid"
       id="grid22" /></sodipodi:namedview><g
     id="g8"
     style="display:inline"
     transform="translate(-69.7,-232.3)"><path
       d="m 727.3,641.3 c 0,-8.6 -7,-15.7 -15.7,-15.7 H 288.3 c -8.6,0 -15.7,7 -15.7,15.7 v 0.5 L 256.4,757.1 H 743.6 L 727.3,641.6 Z"
       id="path2"
       inkscape:connector-curvature="0"
       style="fill:#000000" /><path
       d="M 880.7,242.9 H 119.3 c -19.9,0 -36.2,16.3 -36.2,36.2 v 430.8 c 0,19.9 16.3,36.2 36.2,36.2 h 120.4 l 16.3,-116 c 0.1,-12.4 10.2,-22.4 22.6,-22.4 h 442.6 c 12.4,0 22.5,10 22.6,22.4 l 16.3,116 h 120.4 c 19.9,0 36.2,-16.3 36.2,-36.2 V 279.2 c 0.3,-20 -16.1,-36.3 -36,-36.3 z m 9,294.4 c 0,11.5 -9.4,20.8 -20.8,20.8 H 131.1 c -11.5,0 -20.8,-9.4 -20.8,-20.8 V 289.6 c 0,-11.5 9.4,-20.8 20.8,-20.8 h 737.8 c 11.5,0 20.8,9.4 20.8,20.8 z"
       id="path4"
       inkscape:connector-curvature="0"
       style="fill:#000000" /><path
       d="M 710.2,421.9 H 289.8 c -4.8,0 -8.7,3.9 -8.7,8.7 v 103.1 c 0,4.8 3.9,8.7 8.7,8.7 h 420.3 c 4.8,0 8.7,-3.9 8.7,-8.7 V 430.6 c 0,-4.8 -3.9,-8.7 -8.6,-8.7 z m -366,108.9 c -26.9,0 -48.7,-21.8 -48.7,-48.7 0,-26.9 21.8,-48.7 48.7,-48.7 26.9,0 48.7,21.8 48.7,48.7 -0.1,26.9 -21.9,48.7 -48.7,48.7 z m 314.7,0 c -26.9,0 -48.7,-21.8 -48.7,-48.7 0,-26.9 21.8,-48.7 48.7,-48.7 26.9,0 48.7,21.8 48.7,48.7 -0.1,26.9 -21.9,48.7 -48.7,48.7 z"
       id="path6"
       inkscape:connector-curvature="0"
       style="fill:#000000" /></g></svg>